# xmcd
#
# Track frame offsets:
#	182
#	13930
#	26707
#	39572
#	51120
#	63982
#	77025
#	90650
#	103620
#	115445
#
# Disc length: 1712
#
# Revision: 1
# Processed by: cddbd v1.5.1PL0 Copyright (c) Steve Scherf et al.
# Submitted via: FreeRIP 2.51 
# Normalized: r0:TDELIM( - )
#
DISCID=7f06ae0a
DTITLE=Various Motown - The Complete Motown Anthology
DYEAR=1900
DGENRE=Motown Soul
TTITLE0=Jimmy Ruffin - What Becomes of the Brokenhearted
TTITLE1=The Marvelettes - Don't Mess With Bill
TTITLE2=The Miracles - Going to a Go-Go
TTITLE3=The Temptations - Ain't Too Proud to Beg
TTITLE4=Stevie Wonder - For Once In My Life
TTITLE5=Martha and the Vandellas - Jimmy Mack
TTITLE6=Four Tops - Bernadette
TTITLE7=Diana Ross and the Supremes - Reflections
TTITLE8=Stevie Wonder - I Was Made to Love Her
TTITLE9=Gladys Knight and the Pips - I Heard It Through the Grapevine
EXTD=Danny ChAos Lives!
EXTT0=
EXTT1=
EXTT2=
EXTT3=
EXTT4=
EXTT5=
EXTT6=
EXTT7=
EXTT8=
EXTT9=
PLAYORDER=
